<svg width="16" height="15" viewBox="0 0 16 15" fill="none" xmlns="http://www.w3.org/2000/svg">
<path fill-rule="evenodd" clip-rule="evenodd" d="M6.69473 2.52632C6.49967 3.48726 5.65009 4.21053 4.63158 4.21053C3.61307 4.21053 2.76349 3.48726 2.56843 2.52632H0.421052C0.188511 2.52632 0 2.3378 0 2.10526C0 1.87272 0.188512 1.68421 0.421053 1.68421H2.56843C2.76349 0.723267 3.61307 0 4.63158 0C5.65009 0 6.49967 0.723267 6.69473 1.68421H15.5789C15.8115 1.68421 16 1.87272 16 2.10526C16 2.3378 15.8115 2.52632 15.5789 2.52632H6.69473ZM5.89474 2.10526C5.89474 2.80289 5.3292 3.36842 4.63158 3.36842C3.93396 3.36842 3.36842 2.80289 3.36842 2.10526C3.36842 1.40764 3.93396 0.842105 4.63158 0.842105C5.3292 0.842105 5.89474 1.40764 5.89474 2.10526Z" fill="white"/>
<path fill-rule="evenodd" clip-rule="evenodd" d="M13.4316 7.57895C13.2365 8.53989 12.3869 9.26316 11.3684 9.26316C10.3499 9.26316 9.50033 8.53989 9.30527 7.57895H0.421052C0.188511 7.57895 0 7.39044 0 7.15789C0 6.92535 0.188512 6.73684 0.421053 6.73684H9.30527C9.50033 5.7759 10.3499 5.05263 11.3684 5.05263C12.3869 5.05263 13.2365 5.7759 13.4316 6.73684H15.5789C15.8115 6.73684 16 6.92535 16 7.15789C16 7.39044 15.8115 7.57895 15.5789 7.57895H13.4316ZM12.6316 7.15789C12.6316 7.85552 12.066 8.42105 11.3684 8.42105C10.6708 8.42105 10.1053 7.85552 10.1053 7.15789C10.1053 6.46027 10.6708 5.89474 11.3684 5.89474C12.066 5.89474 12.6316 6.46027 12.6316 7.15789Z" fill="white"/>
<path fill-rule="evenodd" clip-rule="evenodd" d="M4.63158 14.3158C5.65009 14.3158 6.49967 13.5925 6.69473 12.6316H15.5789C15.8115 12.6316 16 12.4431 16 12.2105C16 11.978 15.8115 11.7895 15.5789 11.7895H6.69473C6.49967 10.8285 5.65009 10.1053 4.63158 10.1053C3.61307 10.1053 2.76349 10.8285 2.56843 11.7895H0.421053C0.188512 11.7895 0 11.978 0 12.2105C0 12.4431 0.188511 12.6316 0.421052 12.6316H2.56843C2.76349 13.5925 3.61307 14.3158 4.63158 14.3158ZM4.63158 13.4737C5.3292 13.4737 5.89474 12.9081 5.89474 12.2105C5.89474 11.5129 5.3292 10.9474 4.63158 10.9474C3.93396 10.9474 3.36842 11.5129 3.36842 12.2105C3.36842 12.9081 3.93396 13.4737 4.63158 13.4737Z" fill="white"/>
</svg>
